:SAMPLES-PER-SECOND 30
:FULLY-SPECIFIED
:DEGREES
546
root  1.79535 40.7478 -2.97627 -177.75 -86.7319 178.667
RightUpLeg  -7.87502 -9.5865 -3.97628
RightLeg  16.4092 -1.90218 -0.641773
RightFoot  -9.1296 -0.105396 2.22029
RightToes  0.000482159 0.542163 -0.142577
Spine  10.8189 0.749882 6.13742
Spine1  7.79539 3.0439 -6.9504
HEad  3.49338 38.2908 -12.5151
LeftShoulder1  7.34465 -10.6258 -45.2953
LeftArm  -12.7256 22.2031 -26.148
LeftForeArm  24.272 -25.2245 -4.10822
LeftHand  -0.25398 0.0180481 5.50724
RightShoulder  5.53242 9.49594 36.5632
RightArm  -11.3305 -28.3541 39.492
RightForeArm  3.29821 13.7503 5.87907
RightHand  -0.768486 0.358686 -15.5681
LeftUpLeg  -0.918734 4.55159 2.1247
LeftLeg  6.17455 4.40946 -3.30271
LeftFoot  -7.5999 0.120055 -2.29253
LeftToes  1.06248e-005 4.65854e-005 -8.185e-006
547
root  1.89662 40.7599 -2.63625 -174.118 -86.3188 174.922
RightUpLeg  -7.17106 -10.7387 -4.66566
RightLeg  16.1562 -1.82748 -0.527465
RightFoot  -7.59581 -0.133422 2.49573
RightToes  0.000482159 0.542163 -0.142577
Spine  9.78558 0.782279 5.00607
Spine1  7.34638 2.6143 -5.80279
HEad  2.41809 33.316 -11.1344
LeftShoulder1  6.99186 -10.2011 -44.4132
LeftArm  -12.4155 22.453 -25.8594
LeftForeArm  21.9083 -21.9056 -3.71262
LeftHand  -0.25398 0.0180481 5.50724
RightShoulder  5.36756 9.21284 36.2204
RightArm  -12.4517 -26.1402 38.0133
RightForeArm  5.04817 13.5954 5.53976
RightHand  -0.924404 1.40004 -15.9037
LeftUpLeg  -0.934812 4.29773 1.36421
LeftLeg  5.98599 5.15419 -3.45342
LeftFoot  -7.11887 0.0923486 -1.3406
LeftToes  1.06248e-005 4.65854e-005 -8.185e-006
548
root  1.96709 40.7432 -2.37031 -169.199 -86.2114 170.02
RightUpLeg  -6.04208 -11.839 -5.47824
RightLeg  14.9083 -1.45284 0.046449
RightFoot  -6.87996 -0.151332 2.6875
RightToes  0.000482159 0.542163 -0.142577
Spine  8.49447 0.821734 3.52336
Spine1  6.91334 2.13412 -4.36198
HEad  0.799738 27.7127 -9.8436
LeftShoulder1  6.42543 -9.61097 -42.5482
LeftArm  -12.6317 22.1126 -25.1128
LeftForeArm  21.1757 -17.3571 -3.72876
LeftHand  -0.25398 0.0180481 5.50724
RightShoulder  5.02 8.704 35.1552
RightArm  -15.0844 -23.7703 36.6977
RightForeArm  7.47067 12.9902 4.93665
RightHand  -1.15286 2.5581 -16.9756
LeftUpLeg  -0.981604 4.13953 0.703517
LeftLeg  5.78298 5.43747 -3.73886
LeftFoot  -6.85874 0.0743028 -0.841032
LeftToes  1.06248e-005 4.65854e-005 -8.185e-006
549
root  2.031 40.7342 -2.13552 -166.817 -85.8954 167.344
RightUpLeg  -4.43444 -11.5024 -6.28152
RightLeg  12.8397 -2.06503 0.739326
RightFoot  -7.051 -0.129333 2.16917
RightToes  0.000482159 0.542163 -0.142577
Spine  7.68047 0.963356 2.74116
Spine1  6.45704 2.04564 -3.67752
HEad  -0.696476 21.8221 -8.3012
LeftShoulder1  5.77339 -9.00212 -39.8979
LeftArm  -13.5329 21.2474 -23.5868
LeftForeArm  21.3742 -12.4148 -3.89966
LeftHand  -0.25398 0.0180481 5.50724
RightShoulder  4.63803 8.23265 33.5742
RightArm  -17.7991 -21.6121 34.8714
RightForeArm  7.58237 12.2321 4.37912
RightHand  -1.40996 3.69345 -18.2096
LeftUpLeg  -0.468491 4.06868 0.239636
LeftLeg  5.20401 5.78254 -4.10938
LeftFoot  -6.74442 0.0595253 -0.474275
LeftToes  1.06248e-005 4.65854e-005 -8.185e-006
550
root  2.08072 40.7595 -1.91463 -166.755 -85.4265 166.87
RightUpLeg  -3.00022 -10.4397 -6.99939
RightLeg  10.7093 -3.32756 1.29993
RightFoot  -6.93494 -0.105221 1.51777
RightToes  0.000482159 0.542163 -0.142577
Spine  7.25428 1.16852 2.66983
Spine1  5.88099 2.24248 -3.68226
HEad  -1.668 16.2146 -6.40097
LeftShoulder1  5.09427 -8.38385 -36.7193
LeftArm  -14.1034 20.405 -21.4357
LeftForeArm  19.8182 -8.50681 -3.64992
LeftHand  -0.25398 0.0180481 5.50724
RightShoulder  4.27129 7.84135 31.7041
RightArm  -19.2447 -19.6175 31.7237
RightForeArm  6.60841 11.5063 4.03999
RightHand  -1.50733 4.21965 -18.4039
LeftUpLeg  0.27617 3.96668 -0.157724
LeftLeg  4.37188 6.36521 -4.41489
LeftFoot  -6.34366 0.03466 0.0781653
LeftToes  1.06248e-005 4.65854e-005 -8.185e-006
551
root  2.11346 40.8012 -1.70497 -169.178 -85.0091 169.126
RightUpLeg  -2.2521 -9.79839 -7.42493
RightLeg  9.13643 -3.76289 1.78722
RightFoot  -5.89749 -0.111706 1.49331
RightToes  0.000482159 0.542163 -0.142577
Spine  6.76049 1.37512 3.17669
Spine1  5.22953 2.52714 -4.02148
HEad  -2.33342 11.4691 -4.56829
LeftShoulder1  4.37549 -7.68052 -33.0471
LeftArm  -14.5496 19.9128 -19.0823
LeftForeArm  17.037 -6.51243 -3.12655
LeftHand  -0.25398 0.0180481 5.50724
RightShoulder  3.86688 7.40758 29.4633
RightArm  -19.6855 -17.7166 27.4075
RightForeArm  6.37635 11.0429 3.80906
RightHand  -1.5129 4.42972 -18.0934
LeftUpLeg  0.718481 3.85184 -0.398444
LeftLeg  3.67011 6.98831 -4.50965
LeftFoot  -5.7972 0.0043348 0.627754
LeftToes  1.06248e-005 4.65854e-005 -8.185e-006
552
root  2.15085 40.834 -1.51476 -173.749 -84.6419 173.773
RightUpLeg  -2.01144 -9.47872 -7.46219
RightLeg  8.0582 -3.43331 2.21334
RightFoot  -4.58977 -0.138308 1.81778
RightToes  0.000482159 0.542163 -0.142577
Spine  6.28335 1.62394 3.97374
Spine1  4.44321 2.83261 -4.34184
HEad  -3.02893 7.83309 -3.2137
LeftShoulder1  3.65918 -6.88665 -29.1109
LeftArm  -15.5228 19.6736 -16.5729
LeftForeArm  14.9417 -6.48338 -2.62934
LeftHand  -0.25398 0.0180481 5.50724
RightShoulder  3.4192 6.89669 26.8285
RightArm  -19.8846 -15.9756 22.3763
RightForeArm  5.71977 11.0095 3.66599
RightHand  -1.63445 4.95281 -18.5494
LeftUpLeg  0.775206 3.76989 -0.411915
LeftLeg  3.27019 7.55183 -4.41638
LeftFoot  -5.4699 -0.0221226 1.04865
LeftToes  1.06248e-005 4.65854e-005 -8.185e-006
553
root  2.20906 40.8561 -1.36674 -177.418 -84.4309 177.483
RightUpLeg  -1.79364 -9.15881 -7.3561
RightLeg  7.1812 -3.43095 2.46008
RightFoot  -3.78294 -0.147298 1.8418
RightToes  0.000482159 0.542163 -0.142577
Spine  6.22949 1.85779 4.31189
Spine1  3.40259 2.9894 -4.16001
HEad  -3.7858 5.22108 -2.28808
LeftShoulder1  3.01482 -6.06318 -25.2871
LeftArm  -16.6398 19.3854 -13.6379
LeftForeArm  13.5378 -7.76034 -2.23304
LeftHand  -0.25398 0.0180481 5.50724
RightShoulder  2.96307 6.32713 23.9721
RightArm  -20.1458 -14.2276 16.9934
RightForeArm  2.97196 11.1758 3.70131
RightHand  -1.81674 5.48366 -19.5968
LeftUpLeg  0.733755 3.7372 -0.371211
LeftLeg  3.03855 7.90357 -4.34485
LeftFoot  -5.25591 -0.0520758 1.49354
LeftToes  1.06248e-005 4.65854e-005 -8.185e-006
554
root  2.27535 40.8749 -1.27136 -178.486 -84.6855 178.408
RightUpLeg  -1.33573 -8.92959 -7.42196
RightLeg  6.40769 -4.06817 2.56084
RightFoot  -3.40382 -0.138973 1.66766
RightToes  0.000482159 0.542163 -0.142577
Spine  6.53564 1.8803 3.91432
Spine1  2.29407 2.82161 -3.47413
HEad  -4.48165 3.44496 -1.53577
LeftShoulder1  2.46239 -5.28222 -21.6119
LeftArm  -17.923 18.8277 -10.3417
LeftForeArm  12.7547 -9.47227 -1.86269
LeftHand  -0.25398 0.0180481 5.50724
RightShoulder  2.49964 5.63953 20.9976
RightArm  -20.6048 -12.1305 11.9243
RightForeArm  -1.15995 11.1396 3.84853
RightHand  -1.90693 5.57483 -20.3693
LeftUpLeg  0.83352 3.7419 -0.405174
LeftLeg  2.81425 7.76578 -4.43844
LeftFoot  -4.91962 -0.0845788 1.95884
LeftToes  1.06248e-005 4.65854e-005 -8.185e-006
555
root  2.33044 40.8884 -1.20877 -178.381 -85.3661 178.116
RightUpLeg  -0.761322 -8.9477 -7.63206
RightLeg  5.7363 -4.71251 2.68147
RightFoot  -3.04782 -0.145975 1.72842
RightToes  0.000482159 0.542163 -0.142577
Spine  6.71326 1.66656 3.41199
Spine1  1.49423 2.45094 -2.89672
HEad  -5.11975 2.31903 -0.888778
LeftShoulder1  1.99727 -4.59975 -17.99
LeftArm  -19.7556 18.0305 -7.19104
LeftForeArm  12.8583 -11.4805 -1.47452
LeftHand  -0.25398 0.0180481 5.50724
RightShoulder  2.02715 4.78844 17.8837
RightArm  -21.3384 -9.72473 7.84672
RightForeArm  -5.32887 10.8272 3.99133
RightHand  -1.97577 5.62268 -20.9834
LeftUpLeg  0.99882 3.74409 -0.455297
LeftLeg  2.60204 7.1837 -4.58239
LeftFoot  -4.58402 -0.106236 2.24734
LeftToes  1.06248e-005 4.65854e-005 -8.185e-006
556
root  2.37662 40.8966 -1.15876 -178.892 -86.0167 178.601
RightUpLeg  -0.381847 -9.08658 -7.76573
RightLeg  5.16433 -5.04456 2.86671
RightFoot  -2.67447 -0.161839 1.90235
RightToes  0.000482159 0.542163 -0.142577
Spine  6.55396 1.45604 3.24323
Spine1  1.03324 2.16638 -2.67128
HEad  -5.76621 1.62209 -0.421528
LeftShoulder1  1.61956 -3.97973 -14.7199
LeftArm  -22.6028 17.1531 -4.53143
LeftForeArm  13.7056 -14.204 -1.37881
LeftHand  -0.25398 0.0180481 5.50724
RightShoulder  1.58272 3.8513 14.6937
RightArm  -22.1533 -7.43274 4.79937
RightForeArm  -9.17777 10.5426 4.14256
RightHand  -2.13925 6.06249 -21.8216
LeftUpLeg  0.99898 3.6902 -0.482672
LeftLeg  2.43946 6.63771 -4.60823
LeftFoot  -4.39453 -0.116918 2.36672
LeftToes  1.06248e-005 4.65854e-005 -8.185e-006
557
root  2.42753 40.9064 -1.12785 -179.841 -86.3497 179.688
RightUpLeg  -0.338369 -9.14117 -7.75655
RightLeg  4.74639 -5.3354 3.0092
RightFoot  -2.40181 -0.162844 1.86998
RightToes  0.000482159 0.542163 -0.142577
Spine  6.34472 1.4382 3.11609
Spine1  0.572055 2.07292 -2.42107
HEad  -6.37517 1.12184 -0.0930313
LeftShoulder1  1.31786 -3.31808 -12.16
LeftArm  -26.5998 16.1311 -2.43296
LeftForeArm  14.8454 -17.2766 -1.88192
LeftHand  -0.25398 0.0180481 5.50724
RightShoulder  1.21455 2.95967 11.6907
RightArm  -22.8993 -5.52328 2.40484
RightForeArm  -12.2825 10.5559 4.30481
RightHand  -2.29931 6.52074 -22.5356
LeftUpLeg  0.795834 3.58507 -0.521651
LeftLeg  2.30372 6.44199 -4.5408
LeftFoot  -4.21934 -0.129292 2.48609
LeftToes  1.06248e-005 4.65854e-005 -8.185e-006
558
root  2.48479 40.9184 -1.12724 179.974 -86.5291 179.997
RightUpLeg  -0.433028 -9.12283 -7.70933
RightLeg  4.51183 -5.68371 3.04859
RightFoot  -2.18951 -0.158079 1.77153
RightToes  0.000482159 0.542163 -0.142577
Spine  6.34776 1.52007 2.85288
Spine1  -0.024026 2.06889 -2.08929
HEad  -6.85237 0.69612 0.247952
LeftShoulder1  1.07945 -2.66427 -10.1412
LeftArm  -30.7123 14.6151 -1.00069
LeftForeArm  15.7002 -19.1739 -2.42823
LeftHand  -0.25398 0.0180481 5.50724
RightShoulder  0.947823 2.21699 9.22121
RightArm  -23.6962 -3.9727 0.453957
RightForeArm  -13.829 10.7794 4.36975
RightHand  -2.33161 6.57942 -22.73
LeftUpLeg  0.592167 3.49891 -0.557739
LeftLeg  2.17775 6.38345 -4.49896
LeftFoot  -3.95974 -0.143681 2.59776
LeftToes  1.06248e-005 4.65854e-005 -8.185e-006
